<svg width="200" height="150" xmlns="http://www.w3.org/2000/svg">
  <!-- Background -->
  <rect width="200" height="150" fill="#1a1a2e"/>

  <!-- Axes -->
  <line x1="30" y1="20" x2="30" y2="130" stroke="#4CAF50" stroke-width="2"/>
  <line x1="30" y1="130" x2="180" y2="130" stroke="#4CAF50" stroke-width="2"/>

  <!-- Growth curve line -->
  <polyline points="40,120 55,115 70,105 85,90 100,70 115,50 130,40 145,35 160,33 175,32"
            fill="none" stroke="#4CAF50" stroke-width="3" stroke-linecap="round" stroke-linejoin="round"/>

  <!-- Data points -->
  <circle cx="40" cy="120" r="3.5" fill="#4CAF50"/>
  <circle cx="55" cy="115" r="3.5" fill="#4CAF50"/>
  <circle cx="70" cy="105" r="3.5" fill="#4CAF50"/>
  <circle cx="85" cy="90" r="3.5" fill="#4CAF50"/>
  <circle cx="100" cy="70" r="3.5" fill="#4CAF50"/>
  <circle cx="115" cy="50" r="3.5" fill="#4CAF50"/>
  <circle cx="130" cy="40" r="3.5" fill="#4CAF50"/>
  <circle cx="145" cy="35" r="3.5" fill="#4CAF50"/>
  <circle cx="160" cy="33" r="3.5" fill="#4CAF50"/>
  <circle cx="175" cy="32" r="3.5" fill="#4CAF50"/>
</svg>
