<svg width="200" height="150" xmlns="http://www.w3.org/2000/svg">
  <!-- Background -->
  <rect width="200" height="150" fill="#1a1a2e"/>

  <!-- Axes -->
  <line x1="30" y1="20" x2="30" y2="130" stroke="#00d4ff" stroke-width="2"/>
  <line x1="30" y1="130" x2="180" y2="130" stroke="#00d4ff" stroke-width="2"/>

  <!-- Scatter points with slight correlation -->
  <circle cx="45" cy="115" r="4" fill="#00d4ff" opacity="0.8"/>
  <circle cx="55" cy="105" r="4" fill="#00d4ff" opacity="0.8"/>
  <circle cx="65" cy="110" r="4" fill="#00d4ff" opacity="0.8"/>
  <circle cx="75" cy="95" r="4" fill="#00d4ff" opacity="0.8"/>
  <circle cx="85" cy="100" r="4" fill="#00d4ff" opacity="0.8"/>
  <circle cx="95" cy="85" r="4" fill="#00d4ff" opacity="0.8"/>
  <circle cx="105" cy="80" r="4" fill="#00d4ff" opacity="0.8"/>
  <circle cx="115" cy="75" r="4" fill="#00d4ff" opacity="0.8"/>
  <circle cx="125" cy="65" r="4" fill="#00d4ff" opacity="0.8"/>
  <circle cx="135" cy="70" r="4" fill="#00d4ff" opacity="0.8"/>
  <circle cx="145" cy="55" r="4" fill="#00d4ff" opacity="0.8"/>
  <circle cx="155" cy="50" r="4" fill="#00d4ff" opacity="0.8"/>
  <circle cx="165" cy="45" r="4" fill="#00d4ff" opacity="0.8"/>
  <circle cx="60" cy="120" r="4" fill="#00d4ff" opacity="0.8"/>
  <circle cx="90" cy="90" r="4" fill="#00d4ff" opacity="0.8"/>
  <circle cx="120" cy="60" r="4" fill="#00d4ff" opacity="0.8"/>
  <circle cx="150" cy="40" r="4" fill="#00d4ff" opacity="0.8"/>
</svg>
